<?xml version="1.0" encoding="utf-8"?>
<!-- Generator: Adobe Illustrator 19.2.0, SVG Export Plug-In . SVG Version: 6.00 Build 0)  -->
<svg version="1.1" id="Layer_1" xmlns="http://www.w3.org/2000/svg" xmlns:xlink="http://www.w3.org/1999/xlink" x="0px" y="0px"
	 viewBox="0 0 208 248" style="enable-background:new 0 0 208 248;" xml:space="preserve">
<style type="text/css">
	.st0{fill:#FFFFFF;}
</style>
<g id="_x34_XOzFj_1_">
	<g>
		<path class="st0" d="M141,24.4c-0.4,0.5-0.7,1-1.2,1.5c-7.4,7.4-14.7,14.8-22.2,22.1c-0.7,0.7-2,1.2-3,1.2
			c-27.6,0.1-55.1,0.1-82.7,0.1c-0.8,0-1.7,0-2.7,0c0,0.8,0,1.3,0,1.9c0,44.9,0,89.8,0,134.6c0,7.6,5.3,13,13,13
			c41.3,0,82.6,0,123.9,0c7.2,0,12.6-5.5,12.6-12.8c0-24.2,0-48.4,0-72.6c0-0.9,0.3-2.1,1-2.7c7.6-7.7,15.2-15.3,22.8-22.9
			c0.3-0.3,0.7-0.5,1.1-0.7c0,34.2,0,68.5,0,102.7c-0.1,0.4-0.3,0.8-0.4,1.3c-2.4,15-10.7,25.2-24.9,30.5c-2.7,1-5.7,1.4-8.6,2.1
			c-43.8,0-87.7,0-131.5,0c-0.4-0.1-0.8-0.3-1.3-0.4c-15.7-2.6-26.1-11.4-31-26.5c-0.7-2.2-1.1-4.6-1.6-7c0-47.7,0-95.5,0-143.2
			c0.1-0.4,0.3-0.7,0.4-1.1C6.5,35,13.9,27.2,24.1,24.9c0.8-0.2,1.6-0.4,2.4-0.6C64.7,24.4,102.8,24.4,141,24.4z"/>
		<path class="st0" d="M172.5,24.4c1.3,1,2.8,1.8,4,3c8.1,8,16.1,16,24.1,24c3.6,3.6,3.6,7.3-0.1,11c-10.5,10.5-21,21-31.5,31.5
			c-17.7,17.7-35.4,35.4-53.1,53.1c-0.5,0.5-0.8,1.2-1.1,1.7c-12.1-12-23.7-23.7-35.5-35.4c0.4-0.4,0.9-0.9,1.4-1.4
			c27.8-27.8,55.7-55.7,83.6-83.5c1.6-1.6,3.6-2.6,5.4-3.9C170.7,24.4,171.6,24.4,172.5,24.4z"/>
		<path class="st0" d="M56.9,170.8c4.2-16.7,8.2-33,12.3-49.1c12.3,12.3,24.5,24.5,36.8,36.9C90,162.6,73.6,166.6,56.9,170.8z"/>
	</g>
</g>
</svg>
