<?xml version="1.0" encoding="utf-8"?>
<!-- Generator: Adobe Illustrator 19.2.0, SVG Export Plug-In . SVG Version: 6.00 Build 0)  -->
<svg version="1.1" id="Layer_1" xmlns="http://www.w3.org/2000/svg" xmlns:xlink="http://www.w3.org/1999/xlink" x="0px" y="0px"
	 viewBox="0 0 208 248" style="enable-background:new 0 0 208 248;" xml:space="preserve">
<style type="text/css">
	.st0{fill:#FFFFFF;}
</style>
<g>
	<path class="st0" d="M53.7,101.5l51.2,42.4c0,0,0-65.7,0-66.5C84.9,77.3,64.6,87,53.7,101.5z"/>
	<path class="st0" d="M207.8,134.8c-0.9-15-4.9-29.1-12-42.3c-6.5-12.2-15.2-22.6-25.8-31.4c-8.4-6.9-17.7-12.5-28-16.2
		c-5.7-2-11.7-3.4-17.5-5.1c-0.7-0.2-1.3-0.3-2.2-0.6c0-4.1,0-8.2,0-12.4c0-1.8,0-3.6,0-5.3c0-1.1,0.4-1.6,1.5-1.6
		c2.2,0.1,4.4,0,6.7,0c2.4,0.1,4-0.9,5.1-3c2.1-3.9,1-8.1-2.9-11.1C114.1,6,95.5,6,77,6c-4,3-5,7.4-2.7,11.4c1,1.7,2.5,2.6,4.5,2.6
		c2.3,0,4.7,0,7,0c1,0,1.5,0.2,1.5,1.4c0,5.9,0,11.8,0,17.9c-3.2,0.8-6.5,1.4-9.6,2.3c-20.9,5.7-38.3,16.9-52.2,33.5
		C11.8,91.5,3.9,110.5,2,131.8c-2.1,22.9,3,44.3,15.1,63.9c8.3,13.4,19.1,24.2,32.4,32.7c10.9,6.9,22.6,11.6,35,14
		c4,0.8,10.8,2,20.1,2.1c7.5,0.1,14.6-0.6,18.6-1.5c1.3-0.2,2.5-0.6,3.8-0.8c9.1-1.9,17.7-5.1,25.9-9.5
		c20.4-10.9,35.7-26.9,45.5-47.8C205.8,169,208.9,152.3,207.8,134.8z M27.1,143.8c-0.1-42.6,34.7-78.2,77.4-78.5
		c42.7-0.2,77.9,35.3,78,78.2c0.1,43-34.8,75.6-77.9,75.6C61.6,219.1,27.3,186.8,27.1,143.8z"/>
</g>
</svg>
