<?xml version="1.0" encoding="utf-8"?>
<!-- Generator: Adobe Illustrator 19.2.0, SVG Export Plug-In . SVG Version: 6.00 Build 0)  -->
<svg version="1.1" id="Layer_1" xmlns="http://www.w3.org/2000/svg" xmlns:xlink="http://www.w3.org/1999/xlink" x="0px" y="0px"
	 viewBox="0 0 208 248" style="enable-background:new 0 0 208 248;" xml:space="preserve">
<style type="text/css">
	.st0{fill:#FFFFFF;}
</style>
<g id="ggssME_1_">
	<g>
		<path class="st0" d="M38.1,226c-17-5-25.5-15.3-25.7-33.2c-0.2-18,5.1-34.7,12.4-50.9c9.4-20.7,21.9-39.1,39.6-53.6
			c1.7-1.4,4.3-2.5,6.5-2.5c22-0.2,43.9-0.2,65.9,0c2.3,0,5,0.9,6.7,2.3c23.1,19,37.5,43.8,46.5,71.9c4.1,12.7,6.7,25.6,4.9,39
			c-1.8,13.5-9.4,22-22.1,26.1C160.5,229.2,44.7,228,38.1,226z M109.6,204.6c2-0.4,3.5-0.7,5-1c12.9-2.7,21-11.7,22.7-25.1
			c1.5-12.2-4.1-22.2-15.9-27.9c-3.9-1.9-8-3.4-12-5c-3.6-1.5-7.2-3-10.7-4.7c-3.8-1.9-5.4-5.2-4.8-9.3c0.6-4.4,3.1-7.4,7.5-8.5
			c5.5-1.3,10.4,0.6,13.8,5.5c1.5,2.1,2.6,4.5,4.1,7.1c5.1-2.1,10.1-4.1,15.1-6.2c-3.7-12.9-11.9-19.9-24.8-21.7c0-3.6,0-6.8,0-10.2
			c-3.9,0-7.4,0-11.2,0c0,3.5,0,6.8,0,10.2c-1.2,0.2-2,0.4-2.9,0.6c-19.6,4-24.1,23.1-20.5,35.5c2.3,8.1,7.8,13.3,15.3,16.5
			c7.1,3.1,14.4,5.8,21.5,8.9c3.8,1.7,5.5,4.9,5.2,9.1c-0.2,4-2,7.2-5.6,9.1c-8.2,4.1-18.8-0.1-22-8.7c-0.5-1.4-1-2.9-1.6-4.8
			c-5.8,1.5-11.4,3-17.1,4.5c3.4,15.4,12.4,24.2,27.9,26.1c0,4.6,0,8.8,0,12.9c3.9,0,7.3,0,11.1,0
			C109.6,213.1,109.6,209.1,109.6,204.6z"/>
		<path class="st0" d="M104,59.6c-11.1,0-22.1,0.1-33.2-0.1c-2.1,0-4.8-1-6-2.4c-5-5.9-10-11.9-14.2-18.3c-2.7-4.1-3.9-9.1-0.5-13.6
			c3.5-4.7,8.7-5.8,13.9-4.5c7.5,2,15.2,4.1,21.8,7.9c12.5,7.1,24,7.1,36.5,0c6.4-3.6,13.8-5.6,20.9-7.6c2.9-0.8,6.6-0.3,9.6,0.5
			c5.4,1.5,7.8,6.2,6.7,11.7c-1.5,7.7-6.7,13.2-11.2,19.1c-4.3,5.6-9.3,8.2-16.7,7.7C122.4,59.1,113.2,59.6,104,59.6z"/>
		<path class="st0" d="M104.2,79.3c-10.4,0-20.8,0-31.3,0c-5.3,0-8.3-2.5-8.2-6.7c0.1-4,3-6.4,8.1-6.4c20.8,0,41.7,0,62.5,0
			c5,0,7.9,2.5,8,6.5c0,4.1-2.8,6.6-7.8,6.6C125,79.3,114.6,79.3,104.2,79.3z"/>
	</g>
</g>
</svg>
